# xmcd
#
# Track frame offsets: 
#        150
#        19092
#        34019
#        50490
#        64409
#        82846
#        100423
#        117148
#        129721
#        143766
#        156343
#        167089
#
# Disc length: 2481 seconds
#
# Revision: 0
# Processed by: cddbd v1.5.2PL0 Copyright (c) Steve Scherf et al.
# Submitted via: ExactAudioCopy v0.99pb3
#
DISCID=9f09af0c
DTITLE=J. Tex and The Volunteers  - House on the Hill [DigiCD]
DYEAR=2012
DGENRE=Alt. Country
TTITLE0=The Ballad of My Brother and Me
TTITLE1=Home on the Hill
TTITLE2=I Still Miss Someone [Johnny Cash cover]
TTITLE3=Look Up Look Down
TTITLE4=Willin' [Little Feat cover]
TTITLE5=Carnival Girl
TTITLE6=Coalminers Daughter
TTITLE7=Ben McCulloch [Steve Earle cover]
TTITLE8=Long Lost Woman
TTITLE9=Detroit City [Danny Dill and Mel Tillis cover]
TTITLE10=I Always Knew You Were the One [trad.]
TTITLE11=Ukulele Lullaby [with Carl Granberg]
EXTD=
EXTT0=
EXTT1=
EXTT2=
EXTT3=
EXTT4=
EXTT5=
EXTT6=
EXTT7=
EXTT8=
EXTT9=
EXTT10=
EXTT11=
PLAYORDER=
